<?xml version="1.0" encoding="utf-8"?>
<!-- Generator: Adobe Illustrator 16.0.0, SVG Export Plug-In . SVG Version: 6.00 Build 0)  -->
<!DOCTYPE svg PUBLIC "-//W3C//DTD SVG 1.1//EN" "http://www.w3.org/Graphics/SVG/1.1/DTD/svg11.dtd">
<svg version="1.1" id="Capa_1" xmlns="http://www.w3.org/2000/svg" xmlns:xlink="http://www.w3.org/1999/xlink" x="0px" y="0px"
	 width="1002.499px" height="473.729px" viewBox="4.879 6.633 1002.499 473.729"
	 enable-background="new 4.879 6.633 1002.499 473.729" xml:space="preserve">
<g>
	<path fill="#010028" d="M76.042,219.065c0-92.197,65.993-169.854,155.853-193.235c7.947-2.068,16.08-3.711,24.369-4.902
		c10.52-1.511,21.293-2.295,32.262-2.295c0.479,0,0.958,0.014,1.438,0.017c-22.654-7.769-47.1-12.017-72.601-12.017
		C100.012,6.633,4.879,96.37,4.879,207.066c0,110.235,94.346,199.671,211.023,200.417C134.315,379.491,76.042,305.7,76.042,219.065z
		"/>
</g>
<g>
	<path fill="#A40001" d="M213.36,119.279c73.211-44.471,165.202-32.225,225.067,24.175c5.294,4.987,10.337,10.32,15.095,15.988
		c6.034,7.194,11.606,14.932,16.647,23.191c0.221,0.362,0.429,0.728,0.647,1.091c-4.243-20.808-12.104-41.268-23.825-60.474
		C393.061,34.868,278.085,6.502,190.184,59.895c-87.533,53.17-115.193,167.363-62.161,255.6
		C112.752,240.545,144.569,161.064,213.36,119.279z"/>
</g>
<text transform="matrix(1.0023 0 0 1 140.4055 380.3613)" fill="#A40001" font-family="'BritannicBold'" font-size="400">c</text>
<text transform="matrix(0.9564 0 0 1 331.9685 380.3613)" fill="#010028" font-family="'BritannicBold'" font-size="310">s</text>
<text transform="matrix(0.9564 0 0 1 473.407 380.3613)" fill="#010028" font-family="'BritannicBold'" font-size="128"> Company</text>
<text transform="matrix(1.0023 0 0 1 140.4055 500.3623)" fill="#A40001" font-family="'BritannicBold'" font-size="40" letter-spacing="22.947">   </text>
<text transform="matrix(1 0 0 1 140.0974 548.3623)" fill="#A40001" font-family="'BritannicBold'" font-size="40" letter-spacing="24">   </text>
<text transform="matrix(-1.0021 -0.0209 0.0209 -0.9998 359.2214 181.6768)" fill="#010028" font-family="'BritannicBold'" font-size="100">‘</text>
</svg>
